<svg xmlns="http://www.w3.org/2000/svg" viewBox="0 0 400 120" width="400" height="120">
  <rect width="400" height="120" rx="16" fill="#0f0f23"/>
  <!-- Stethoscope icon -->
  <g transform="translate(40, 35)" stroke="#00d4aa" stroke-width="3" fill="none">
    <path d="M0,30 Q0,0 20,0 Q40,0 40,30 Q40,50 20,50 Q10,50 5,45"/>
    <circle cx="20" cy="55" r="8" fill="#00d4aa" opacity="0.3"/>
    <circle cx="20" cy="55" r="4" fill="#00d4aa"/>
  </g>
  <!-- AI text -->
  <text x="90" y="50" font-family="SF Mono, monospace" font-size="32" font-weight="bold" fill="#ffffff">AI Clinic</text>
  <!-- Tagline -->
  <text x="90" y="75" font-family="SF Mono, monospace" font-size="13" fill="#888888">
    Diagnose your AI. Not how smart, how sick.
  </text>
  <!-- Badges -->
  <g transform="translate(90, 88)">
    <rect x="0" y="0" width="50" height="18" rx="9" fill="#7c3aed"/>
    <text x="25" y="13" font-family="SF Mono, monospace" font-size="9" fill="white" text-anchor="middle">v0.3</text>
    <rect x="56" y="0" width="60" height="18" rx="9" fill="#059669"/>
    <text x="86" y="13" font-family="SF Mono, monospace" font-size="9" fill="white" text-anchor="middle">106 symptoms</text>
    <rect x="122" y="0" width="46" height="18" rx="9" fill="#2563eb"/>
    <text x="145" y="13" font-family="SF Mono, monospace" font-size="9" fill="white" text-anchor="middle">A/B + CI</text>
  </g>
  <!-- Pulse line -->
  <path d="M310,60 L330,60 L340,40 L350,80 L360,40 L370,60 L390,60" stroke="#00d4aa" stroke-width="2" fill="none" opacity="0.5"/>
</svg>
